<?xml version="1.0" encoding="UTF-8"?>
<svg version="1.1" xmlns="http://www.w3.org/2000/svg" width="256" height="256">
<path d="M0 0 C22.03852652 18.81159856 36.46579334 41.06373377 44.3515625 68.91015625 C44.69316406 70.08835937 45.03476563 71.2665625 45.38671875 72.48046875 C52.92056498 104.36791093 46.53869956 140.38566089 29.7109375 168.21484375 C11.42243893 197.30470432 -15.82417005 216.61472176 -48.6484375 225.91015625 C-49.82664063 226.25175781 -51.00484375 226.59335938 -52.21875 226.9453125 C-84.10619218 234.47915873 -120.12394214 228.09729331 -147.953125 211.26953125 C-177.04298557 192.98103268 -196.35300301 165.7344237 -205.6484375 132.91015625 C-205.99003906 131.73195312 -206.33164063 130.55375 -206.68359375 129.33984375 C-214.21743998 97.45240157 -207.83557456 61.43465161 -191.0078125 33.60546875 C-172.71931393 4.51560818 -145.47270495 -14.79440926 -112.6484375 -24.08984375 C-111.47023438 -24.43144531 -110.29203125 -24.77304687 -109.078125 -25.125 C-71.91216204 -33.90596927 -29.43835184 -24.14652242 0 0 Z " fill="#5AB5E7" transform="translate(208.6484375,27.08984375)"/>
<path d="M0 0 C8.30026352 5.93874073 13.66784598 13.77585276 16.3203125 23.66015625 C16.54178639 26.45915784 16.51126109 29.22980486 16.4453125 32.03515625 C16.43628906 32.77121094 16.42726562 33.50726563 16.41796875 34.265625 C16.39461394 36.06394505 16.35875086 37.86209536 16.3203125 39.66015625 C17.37089844 39.634375 18.42148438 39.60859375 19.50390625 39.58203125 C28.01049646 39.7561682 35.24007997 42.69739683 41.35546875 48.63671875 C47.85601536 55.50299485 50.39564005 60.64824768 50.7578125 70.09765625 C50.50635363 79.17113048 47.37486296 85.28299494 41.24609375 91.87109375 C33.04660781 99.48846609 24.73782071 100.95983938 13.8581543 100.95068359 C12.71105988 100.95740082 11.56396545 100.96411804 10.3821106 100.97103882 C6.59453993 100.99001787 2.80714649 100.99394303 -0.98046875 100.99609375 C-3.61834282 101.00252177 -6.25621617 101.00925013 -8.89408875 101.01626587 C-14.4228124 101.02904029 -19.95148819 101.03203248 -25.48022461 101.03076172 C-31.85369009 101.02956117 -38.22681646 101.05065098 -44.60019618 101.08224905 C-50.75008402 101.11164316 -56.89981024 101.11873537 -63.04976463 101.11754227 C-65.65758842 101.1198985 -68.26541486 101.12872318 -70.87319374 101.144207 C-74.52552836 101.16386223 -78.17699631 101.15802962 -81.8293457 101.14599609 C-82.90029984 101.15723511 -83.97125397 101.16847412 -85.07466125 101.18005371 C-97.46077882 101.0766623 -104.51699818 95.82284557 -112.9921875 87.34765625 C-117.46589116 80.22286894 -118.74855405 71.94387203 -117.6796875 63.66015625 C-115.17731744 54.45500925 -108.75931254 47.29059633 -100.61328125 42.55859375 C-98.01173856 41.34979613 -95.52894814 40.8738508 -92.6796875 40.66015625 C-92.8034375 39.20609375 -92.8034375 39.20609375 -92.9296875 37.72265625 C-92.88270846 31.90899945 -90.72910973 26.96297776 -86.87890625 22.63671875 C-82.86142969 18.93908013 -78.99305156 16.14092984 -73.6796875 14.66015625 C-71.53272221 14.81154483 -69.38691209 14.97978195 -67.2421875 15.16015625 C-63.84818474 15.37967239 -63.84818474 15.37967239 -60.6796875 14.66015625 C-58.11628751 12.18072971 -56.48898267 9.59244002 -54.625 6.55859375 C-42.42171134 -11.62381626 -16.59423475 -10.58597734 0 0 Z " fill="#FEFEFE" transform="translate(161.6796875,77.33984375)"/>
</svg>